Normalized EMG Linear Envelopes
nRows=153
nColumns=4

endheader
time	 med_gas_r	  soleus_r	 tib_ant_r	
2.18736	  0.069267	  0.092459	  0.025786	
2.24986	  0.068290	  0.089196	  0.025372	
2.31235	  0.066520	  0.084118	  0.024954	
2.37485	  0.065091	  0.080066	  0.024914	
2.43734	  0.063289	  0.079231	  0.025295	
2.49984	  0.063789	  0.080891	  0.025957	
2.56234	  0.066015	  0.082757	  0.026480	
2.62483	  0.068877	  0.083877	  0.026833	
2.68733	  0.071824	  0.084284	  0.027634	
2.74982	  0.073764	  0.084173	  0.029094	
2.81232	  0.074730	  0.082921	  0.030098	
2.87482	  0.073399	  0.081793	  0.029990	
2.93731	  0.069551	  0.081073	  0.028786	
2.99981	  0.064158	  0.079663	  0.027123	
3.0623	  0.061406	  0.079198	  0.026099	
3.1248	  0.061231	  0.079808	  0.025606	
3.1873	  0.062631	  0.081340	  0.025290	
3.24979	  0.063302	  0.082803	  0.025169	
3.31229	  0.063433	  0.083748	  0.025305	
3.37478	  0.064145	  0.086084	  0.025499	
3.43728	  0.064888	  0.089403	  0.025474	
3.49978	  0.067049	  0.090331	  0.025476	
3.56227	  0.068486	  0.088474	  0.025802	
3.62477	  0.069263	  0.085878	  0.026533	
3.68726	  0.069360	  0.084765	  0.027370	
3.74976	  0.068311	  0.084697	  0.028112	
3.81226	  0.067527	  0.086449	  0.028509	
3.87475	  0.068214	  0.089157	  0.028495	
3.93725	  0.069260	  0.090588	  0.028262	
3.99974	  0.069032	  0.088736	  0.028114	
4.06224	  0.069306	  0.085452	  0.028232	
4.12474	  0.073810	  0.084309	  0.028183	
4.18723	  0.086412	  0.087701	  0.027545	
4.24973	  0.109480	  0.096881	  0.027100	
4.31222	  0.141184	  0.113753	  0.027488	
4.37472	  0.173323	  0.141492	  0.028893	
4.43722	  0.218519	  0.184430	  0.032327	
4.49971	  0.306102	  0.245813	  0.039269	
4.56221	  0.437730	  0.329966	  0.050886	
4.6247	  0.594178	  0.437619	  0.067829	
4.6872	  0.729328	  0.547112	  0.089781	
4.7497	  0.799785	  0.623288	  0.113078	
4.81219	  0.793854	  0.661174	  0.133152	
4.87469	  0.738915	  0.662931	  0.145748	
4.93718	  0.676377	  0.654168	  0.150866	
4.99968	  0.644220	  0.644301	  0.146157	
5.06218	  0.650859	  0.631915	  0.135239	
5.12467	  0.670077	  0.614953	  0.125306	
5.18717	  0.695112	  0.606739	  0.119870	
5.24966	  0.710902	  0.602391	  0.117586	
5.31216	  0.696020	  0.583553	  0.117098	
5.37466	  0.668184	  0.559836	  0.117915	
5.43715	  0.632372	  0.552957	  0.117761	
5.49965	  0.606126	  0.576379	  0.114979	
5.56214	  0.611997	  0.621837	  0.110438	
5.62464	  0.648630	  0.666485	  0.106328	
5.68714	  0.694358	  0.702304	  0.103973	
5.74963	  0.731446	  0.718903	  0.104302	
5.81213	  0.741756	  0.717554	  0.105828	
5.87462	  0.719273	  0.705167	  0.106918	
5.93712	  0.693054	  0.697597	  0.109280	
5.99962	  0.676484	  0.710754	  0.111782	
6.06211	  0.674123	  0.734142	  0.111734	
6.12461	  0.683184	  0.762213	  0.108948	
6.1871	  0.694904	  0.788816	  0.106094	
6.2496	  0.696315	  0.805875	  0.105344	
6.3121	  0.704583	  0.816193	  0.107308	
6.37459	  0.733241	  0.820287	  0.110689	
6.43709	  0.769455	  0.840187	  0.115417	
6.49958	  0.798196	  0.871056	  0.120338	
6.56208	  0.805935	  0.898362	  0.122252	
6.62458	  0.788138	  0.894848	  0.120451	
6.68707	  0.758869	  0.850371	  0.114821	
6.74957	  0.728811	  0.801986	  0.109735	
6.81206	  0.707030	  0.786798	  0.108864	
6.87456	  0.703085	  0.792683	  0.112423	
6.93706	  0.717930	  0.810896	  0.115408	
6.99955	  0.755600	  0.849140	  0.114886	
7.06205	  0.786849	  0.884923	  0.111794	
7.12454	  0.799412	  0.904594	  0.109041	
7.18704	  0.795652	  0.900166	  0.109212	
7.24954	  0.791405	  0.892681	  0.110379	
7.31203	  0.780453	  0.896412	  0.109676	
7.37453	  0.758712	  0.916487	  0.105658	
7.43702	  0.722622	  0.926575	  0.101739	
7.49952	  0.693751	  0.921211	  0.101171	
7.56202	  0.677135	  0.928359	  0.104435	
7.62451	  0.688738	  0.948243	  0.111361	
7.68701	  0.726064	  0.962706	  0.116760	
7.7495	  0.783085	  0.982292	  0.117621	
7.812	  0.826401	  0.988458	  0.114595	
7.8745	  0.842755	  0.939322	  0.109591	
7.93699	  0.833623	  0.877041	  0.105142	
7.99949	  0.822978	  0.857059	  0.103578	
8.06198	  0.822185	  0.883368	  0.104017	
8.12448	  0.834733	  0.908459	  0.103800	
8.18698	  0.837066	  0.914946	  0.104057	
8.24947	  0.816846	  0.908230	  0.106680	
8.31197	  0.777768	  0.895025	  0.108656	
8.37446	  0.739034	  0.880807	  0.107055	
8.43696	  0.708802	  0.874728	  0.102682	
8.49946	  0.682406	  0.876945	  0.099032	
8.56195	  0.648989	  0.864809	  0.097436	
8.62445	  0.616992	  0.842256	  0.098441	
8.68694	  0.601276	  0.824855	  0.102171	
8.74944	  0.621678	  0.813913	  0.104890	
8.81194	  0.683927	  0.793444	  0.105969	
8.87443	  0.761879	  0.784625	  0.105346	
8.93693	  0.809607	  0.809376	  0.102544	
8.99942	  0.837566	  0.867561	  0.099589	
9.06192	  0.836799	  0.936420	  0.098615	
9.12442	  0.812838	  0.961260	  0.098829	
9.18691	  0.772779	  0.917564	  0.099075	
9.24941	  0.727424	  0.837058	  0.097933	
9.3119	  0.695115	  0.741251	  0.096175	
9.3744	  0.678403	  0.664868	  0.095203	
9.4369	  0.682981	  0.623483	  0.094101	
9.49939	  0.707297	  0.622717	  0.094225	
9.56189	  0.753974	  0.663364	  0.097203	
9.62438	  0.798070	  0.732902	  0.102521	
9.68688	  0.847691	  0.793611	  0.107042	
9.74938	  0.876549	  0.811522	  0.106330	
9.81187	  0.856668	  0.801656	  0.100045	
9.87437	  0.810214	  0.768867	  0.091605	
9.93686	  0.745463	  0.716513	  0.084300	
9.99936	  0.668243	  0.658309	  0.078765	
10.0619	  0.596714	  0.606352	  0.074007	
10.1244	  0.540892	  0.561742	  0.071062	
10.1868	  0.512173	  0.522696	  0.071025	
10.2493	  0.505384	  0.489459	  0.073059	
10.3118	  0.504024	  0.464657	  0.075190	
10.3743	  0.490388	  0.424973	  0.077018	
10.4368	  0.459764	  0.361468	  0.078432	
10.4993	  0.422043	  0.296777	  0.078873	
10.5618	  0.382985	  0.238900	  0.076754	
10.6243	  0.344751	  0.188584	  0.073926	
10.6868	  0.317521	  0.156461	  0.070725	
10.7493	  0.316752	  0.138853	  0.067386	
10.8118	  0.328751	  0.128881	  0.064822	
10.8743	  0.345226	  0.121126	  0.061915	
10.9368	  0.354700	  0.113144	  0.060534	
10.9993	  0.334305	  0.105436	  0.060499	
11.0618	  0.299498	  0.099414	  0.061486	
11.1243	  0.271240	  0.095822	  0.061437	
11.1868	  0.256768	  0.092999	  0.057832	
11.2493	  0.245585	  0.089055	  0.052440	
11.3118	  0.235769	  0.086356	  0.046550	
11.3743	  0.230217	  0.086978	  0.041783	
11.4368	  0.229070	  0.090472	  0.038334	
11.4993	  0.235302	  0.096443	  0.036316	
11.5618	  0.239643	  0.103161	  0.035963	
11.6243	  0.232265	  0.107510	  0.035567	
11.6868	  0.225335	  0.107772	  0.034724	
